<?xml version="1.0" encoding="utf-8"?>
<svg width="150" height="53" viewBox="17.299 11.239 32.102 31.293" fill="none" xmlns="http://www.w3.org/2000/svg" xmlns:bx="https://boxy-svg.com" preserveAspectRatio="none"><g clip-path="url(#clip0_4272_7100)" transform="matrix(1, 0, 0, 1, 19.503119, 1.432432)"><path d="M22.6085 31.856L14.6341 23.8885L12.1367 26.2168L20.1946 34.2677L25.2409 39.3128L27.6547 36.9011L22.6085 31.856Z" fill="white"/><path d="M26.0348 21.7305C24.5402 16.0014 19.3525 12 13.4192 12C9.23434 12 5.2777 14.0296 2.83172 17.4304C1.23107 19.6527 0.385742 22.2796 0.385742 25.0221C0.385742 28.2945 1.59105 31.3903 3.78633 33.7924C2.59709 32.4533 1.93497 30.7833 1.93497 28.9753C1.93497 27.071 2.66137 25.3336 3.85383 24.0234C4.02418 22.3631 4.61558 20.7863 5.59912 19.4183C7.40548 16.907 10.3272 15.4105 13.4192 15.4105C17.7969 15.4105 21.6282 18.3617 22.7306 22.5911C22.9363 23.3811 23.0424 24.2 23.0424 25.0221C23.0424 27.0742 22.406 29.0299 21.1975 30.6838L21.2939 30.5457L23.7334 32.9831C25.3694 30.7448 26.4526 27.8032 26.4526 25.0221C26.4526 23.9078 26.3112 22.7999 26.0316 21.7305" fill="white"/><path d="M4.13347 34.1617C4.01454 34.0429 3.90205 33.9176 3.78955 33.7956C3.89883 33.9208 4.01454 34.0429 4.13347 34.1617Z" fill="white"/><path d="M21.2939 30.5457L21.1974 30.6838C20.5996 31.5027 19.8764 32.222 19.0536 32.8161C17.4079 34.0043 15.4601 34.6338 13.4224 34.6338C10.8253 34.6338 8.38898 33.6158 6.56655 31.766C5.81122 31.0178 5.35481 30.0383 5.35481 28.9753C5.35481 26.7948 7.12903 25.0221 9.31145 25.0221C10.4107 25.0221 11.4328 25.4621 12.1881 26.2585L14.6695 23.9142C13.2842 22.4498 11.3299 21.6116 9.31466 21.6116C7.15796 21.6116 5.21339 22.5429 3.86344 24.0234C2.67098 25.3336 1.94458 27.071 1.94458 28.9753C1.94458 30.8797 2.6067 32.4532 3.79594 33.7924C3.90843 33.9144 4.02093 34.0397 4.13985 34.1585C6.60833 36.6666 9.90928 38.0443 13.4288 38.0443C16.1898 38.0443 18.8286 37.1932 21.0624 35.5779C22.091 34.8329 22.9716 33.9851 23.743 32.9799L21.3035 30.5425L21.2939 30.5457Z" fill="white"/><g opacity="0.75"><mask id="mask0_4272_7100" style="mask-type:luminance" maskUnits="userSpaceOnUse" x="21" y="32" width="7" height="8"><path d="M27.6547 32.9832H21.3131V39.3128H27.6547V32.9832Z" fill="white"/></mask><g mask="url(#mask0_4272_7100)"><path d="M21.3131 35.3885L25.2408 39.3128L27.6547 36.901C26.3465 35.594 25.0415 34.2902 23.7334 32.9832C23.4409 33.3621 23.0905 33.7764 22.6727 34.2003C22.2002 34.6788 21.7342 35.0706 21.3131 35.3885Z" fill="#FF7800"/></g></g><g opacity="0.75"><mask id="mask1_4272_7100" style="mask-type:luminance" maskUnits="userSpaceOnUse" x="12" y="23" width="10" height="10"><path d="M21.2971 23.9174H12.1849V32.9478H21.2971V23.9174Z" fill="white"/></mask><g mask="url(#mask1_4272_7100)"><path d="M21.2939 30.5457C19.0826 28.3363 16.8712 26.1268 14.6631 23.9174L12.1818 26.2617C14.4092 28.4904 16.6398 30.7191 18.8672 32.9478C19.2433 32.6877 19.6708 32.3569 20.1047 31.9362C20.6093 31.4481 20.9982 30.9632 21.2907 30.5457" fill="#FF7800"/></g></g><path d="M26.0348 21.7305C24.5402 16.0014 19.3525 12 13.4192 12C9.23434 12 5.2777 14.0296 2.83172 17.4304C1.23107 19.6527 0.385742 22.2796 0.385742 25.0221C0.385742 28.2945 1.59105 31.3903 3.78633 33.7924C2.59709 32.4533 1.93497 30.7833 1.93497 28.9753C1.93497 27.071 2.66137 25.3336 3.85383 24.0234C4.02418 22.3631 4.61558 20.7863 5.59912 19.4183C7.40548 16.907 10.3272 15.4105 13.4192 15.4105C17.7969 15.4105 21.6282 18.3617 22.7306 22.5911C22.9363 23.3811 23.0424 24.2 23.0424 25.0221C23.0424 27.0742 22.406 29.0299 21.1975 30.6838L21.2939 30.5457L23.7334 32.9831C25.3694 30.7448 26.4526 27.8032 26.4526 25.0221C26.4526 23.9078 26.3112 22.7999 26.0316 21.7305" fill="#FF7800"/><path d="M4.13347 34.1617C4.01454 34.0429 3.90205 33.9176 3.78955 33.7956C3.89883 33.9208 4.01454 34.0429 4.13347 34.1617Z" fill="#FF7800"/><g opacity="0.55"><mask id="mask2_4272_7100" style="mask-type:luminance" maskUnits="userSpaceOnUse" x="1" y="21" width="23" height="18"><path d="M23.7367 21.6116H1.93823V38.0475H23.7367V21.6116Z" fill="white"/></mask><g mask="url(#mask2_4272_7100)"><path d="M21.294 30.5457L21.1975 30.6838C20.5997 31.5027 19.8765 32.222 19.0537 32.8161C17.408 34.0043 15.4603 34.6338 13.4225 34.6338C10.8254 34.6338 8.3891 33.6158 6.56667 31.766C5.81134 31.0178 5.35493 30.0383 5.35493 28.9753C5.35493 26.7948 7.12915 25.0221 9.31157 25.0221C10.4108 25.0221 11.4329 25.4621 12.1882 26.2585L14.6696 23.9142C13.2843 22.4498 11.3301 21.6116 9.31478 21.6116C7.15808 21.6116 5.21351 22.5429 3.86356 24.0234C2.6711 25.3336 1.9447 27.071 1.9447 28.9753C1.9447 30.8797 2.60682 32.4532 3.79606 33.7924C3.90856 33.9144 4.02105 34.0397 4.13998 34.1585C6.60846 36.6666 9.9094 38.0443 13.4289 38.0443C16.1899 38.0443 18.8287 37.1932 21.0626 35.5779C22.0911 34.8329 22.9718 33.9851 23.7432 32.9799L21.3036 30.5425L21.294 30.5457Z" fill="#FF7800"/></g></g></g><defs><clipPath id="clip0_4272_7100"><rect width="91.5619" height="28" fill="white" transform="translate(0.385742 12)"/></clipPath><bx:export><bx:file format="svg" path="Sin título.svg"/></bx:export></defs></svg>
